<?xml version="1.0" encoding="UTF-8"?>
<svg version="1.1" xmlns="http://www.w3.org/2000/svg" width="1259" height="1140">
<path d="M0 0 C-2.22380495 3.35845458 -4.41534444 6.64769984 -6.99609375 9.7421875 C-7.54821533 10.40782715 -8.10033691 11.0734668 -8.66918945 11.75927734 C-9.25273193 12.45746582 -9.83627441 13.1556543 -10.4375 13.875 C-11.69057856 15.38502312 -12.94317117 16.89544962 -14.1953125 18.40625 C-14.82856445 19.169375 -15.46181641 19.9325 -16.11425781 20.71875 C-19.0357334 24.25296387 -21.92537444 27.81271145 -24.8125 31.375 C-25.89185777 32.70578539 -26.97128283 34.0365162 -28.05078125 35.3671875 C-28.55561035 35.98948242 -29.06043945 36.61177734 -29.58056641 37.25292969 C-31.54742332 39.67378074 -33.52307882 42.08736395 -35.5 44.5 C-47.15146373 58.71620666 -47.15146373 58.71620666 -58.5625 73.125 C-62.72584661 78.47409073 -67.07479792 83.63008814 -71.51757812 88.74829102 C-75.47228143 93.32651239 -79.21884036 98.04058929 -82.92578125 102.8203125 C-86.02305882 106.79871213 -89.22020741 110.67105716 -92.5 114.5 C-96.21243172 118.83751077 -99.80719201 123.24344928 -103.3125 127.75 C-109.20528423 135.3247587 -115.31473805 142.71434762 -121.43408203 150.10644531 C-124.97528183 154.38856967 -128.48804771 158.69388764 -132 163 C-132.72437256 163.88655273 -132.72437256 163.88655273 -133.46337891 164.79101562 C-139.21217269 171.82891143 -144.92898462 178.88280788 -150.5 186.0625 C-156.61284272 193.92511554 -162.95235657 201.95235657 -170 209 C-172.95866828 209.09908585 -175.89402381 209.13174126 -178.853158 209.12304783 C-179.79811273 209.12420167 -180.74306747 209.12535552 -181.71665719 209.12654433 C-184.92514067 209.1292191 -188.13357528 209.1246818 -191.34205627 209.12025452 C-193.64868285 209.12069004 -195.95530939 209.12156461 -198.26193565 209.12284368 C-203.96338311 209.12485591 -209.66481533 209.12218448 -215.36626099 209.11760301 C-222.19101054 209.11238124 -229.01575636 209.11294616 -235.84050742 209.11374746 C-248.43709084 209.11506351 -261.03366903 209.11171183 -273.63025093 209.10573006 C-286.1083739 209.09981968 -298.5864947 209.09596546 -311.06461906 209.09487724 C-311.83951817 209.0948085 -312.61441728 209.09473976 -313.41279819 209.09466894 C-317.34787433 209.09433062 -321.28295048 209.09402923 -325.21802663 209.09374207 C-353.11402119 209.09163982 -381.0100129 209.08489734 -408.90600586 209.07543945 C-436.0121255 209.06625995 -463.11824435 209.05917393 -490.22436523 209.05493164 C-491.05941096 209.05480011 -491.89445669 209.05466859 -492.75480684 209.05453308 C-501.14042777 209.05321459 -509.52604871 209.05193877 -517.91166965 209.05069422 C-534.99522589 209.04815778 -552.07878209 209.04533653 -569.16233826 209.04234314 C-569.94786927 209.04220585 -570.73340029 209.04206856 -571.54273528 209.04192711 C-624.02849139 209.03272134 -676.51424586 209.0168548 -729 209 C-728.98817454 209.92034613 -728.97634908 210.84069227 -728.96416527 211.78892767 C-727.87571492 296.65401528 -727.87571492 296.65401528 -727.69667697 330.13251066 C-727.67309399 334.44224283 -727.64658238 338.75195765 -727.62062073 343.06167603 C-727.57770281 350.25269636 -727.53677897 357.44372555 -727.49731445 364.63476562 C-727.45786169 371.82000128 -727.41619693 379.00521972 -727.37231445 386.19042969 C-727.08792406 432.79413187 -726.9307352 479.3954048 -727 526 C-726.30805479 525.99907821 -725.61610958 525.99815641 -724.90319633 525.99720669 C-633.90973927 525.87864535 -542.91674781 525.94725571 -376.62734199 526.38955754 C-364.66673928 526.42423151 -352.70613324 526.45741671 -340.74552384 526.48969274 C-318.73528106 526.54916756 -296.72505291 526.61269811 -274.71484375 526.68359375 C-273.87481552 526.68629936 -273.03478729 526.68900498 -272.16930366 526.69179258 C-215.44309086 526.87546556 -158.72202596 527.2542153 -102 528 C-103.70674564 532.69715072 -106.2540199 535.75753639 -109.6875 539.3125 C-110.78199945 540.47064636 -111.87575358 541.62949755 -112.96875 542.7890625 C-113.4946875 543.34368164 -114.020625 543.89830078 -114.5625 544.46972656 C-116.88007938 546.93687799 -119.08818244 549.49385886 -121.30078125 552.0546875 C-123.29406428 554.3366529 -125.33493027 556.57228574 -127.375 558.8125 C-130.44746773 562.21083552 -133.38442622 565.67590523 -136.25 569.25 C-140.3488722 574.32342922 -144.73239988 579.06069181 -149.19995117 583.80541992 C-153.23901348 588.11827696 -156.98925265 592.59811381 -160.68359375 597.2109375 C-164.35579387 601.63243984 -168.29518129 605.79865503 -172.21484375 610 C-174.97666341 612.9621924 -177.65302434 615.9902134 -180.30078125 619.0546875 C-182.29406428 621.3366529 -184.33493027 623.57228574 -186.375 625.8125 C-189.44746773 629.21083552 -192.38442622 632.67590523 -195.25 636.25 C-199.3495192 641.32423006 -203.73370862 646.0623033 -208.20214844 650.80761719 C-211.44518831 654.27026747 -214.53414875 657.79268593 -217.5 661.5 C-220.98562736 665.8570342 -224.67793667 669.94121533 -228.5 674 C-233.12294958 678.90960298 -237.46601179 683.94478543 -241.68359375 689.2109375 C-245.35579387 693.63243984 -249.29518129 697.79865503 -253.21484375 702 C-255.97221328 704.95741941 -258.64389941 707.98099591 -261.2890625 711.0390625 C-264.04761771 714.20069427 -266.87287662 717.30201624 -269.69140625 720.41015625 C-271.93460477 722.75370993 -271.93460477 722.75370993 -273.02516174 724.75889587 C-275.21344896 728.12612334 -276.91128193 729.766818 -280.90620422 730.62245178 C-284.81017425 730.83453225 -288.68058039 730.81025971 -292.5859375 730.71875 C-294.1504396 730.70848149 -295.71496519 730.70140119 -297.27949524 730.69715881 C-300.75867493 730.68067628 -304.23665368 730.64124316 -307.71542358 730.58547974 C-313.57161862 730.49203359 -319.4276474 730.44861334 -325.28442383 730.40991211 C-333.23945506 730.35326567 -341.19417299 730.28166467 -349.14894581 730.19613171 C-367.52852936 729.99893596 -385.90807424 729.8911693 -404.28843474 729.7979486 C-411.9864842 729.75875172 -419.68452586 729.71802541 -427.38256836 729.67749023 C-428.25090526 729.67293607 -429.11924216 729.6683819 -430.01389229 729.66368973 C-450.76717461 729.55458122 -471.52030374 729.42313962 -492.2734375 729.2890625 C-494.11916794 729.27716458 -495.96489841 729.26526972 -497.81062889 729.25337791 C-505.2447979 729.2054609 -512.67896629 729.15744837 -520.11313343 729.10924244 C-533.35048166 729.02341653 -546.58783582 728.93856219 -559.82519531 728.85449219 C-560.76575614 728.8485182 -561.70631696 728.84254421 -562.67537963 728.83638918 C-572.97812929 728.77097621 -583.28088054 728.70581802 -593.58363342 728.64091492 C-594.49145783 728.63519531 -595.39928224 728.62947571 -596.33461648 728.62358278 C-599.96487253 728.60071321 -603.59512859 728.57784467 -607.22538483 728.55500638 C-617.72783899 728.48892578 -628.23028773 728.42209976 -638.73272777 728.35380912 C-645.28010038 728.31124972 -651.82747642 728.26924764 -658.37485528 728.22766042 C-662.12557929 728.20380757 -665.87630095 728.17967858 -669.62701797 728.15475082 C-673.72244964 728.12753228 -677.817889 728.10169121 -681.91333008 728.07592773 C-683.04884151 728.06814584 -684.18435293 728.06036394 -685.3542738 728.05234623 C-698.23661813 727.97363267 -711.11655562 728 -724 728 C-724 767.6 -724 807.2 -724 848 C-756.42594343 849.15806941 -756.42594343 849.15806941 -767.421875 849.31640625 C-768.77958269 849.33756326 -770.13728935 849.35878612 -771.49499512 849.38006592 C-775.91324995 849.44735902 -780.3315941 849.50609904 -784.75 849.5625 C-785.51906174 849.57239834 -786.28812347 849.58229668 -787.08049011 849.59249496 C-818.25794018 849.98893068 -849.43807203 850.19425129 -880.61779785 850.28610229 C-885.69983262 850.30166941 -890.78169444 850.32650252 -895.86364746 850.35916138 C-901.90544588 850.39732065 -907.94699199 850.41560879 -913.98890686 850.41901398 C-916.23468961 850.42348167 -918.48047044 850.43478274 -920.72618103 850.45333099 C-923.82328541 850.47763482 -926.9194313 850.47686203 -930.01660156 850.4699707 C-930.91588757 850.48278359 -931.81517357 850.49559649 -932.74171066 850.50879765 C-933.58509617 850.501851 -934.42848167 850.49490435 -935.29742432 850.48774719 C-936.01726627 850.49013555 -936.73710823 850.4925239 -937.47876358 850.49498463 C-941.32582996 849.73970492 -944.57214567 847.85564468 -948 846 C-948.07998741 762.98156045 -948.14376724 679.96235108 -947.5625 449.1171875 C-947.55697134 447.46546559 -947.55144289 445.81374367 -947.54591465 444.16202176 C-947.41216411 404.23181958 -947.27143361 364.30164303 -947.12738395 324.3714768 C-947.03440932 298.59905777 -946.94354206 272.82663211 -946.85449219 247.05419922 C-946.85150408 246.189595 -946.84851596 245.32499079 -946.8454373 244.43418645 C-946.81539801 235.74181459 -946.78539445 227.0494426 -946.7554169 218.35707053 C-946.69449142 200.69118148 -946.63332937 183.02529325 -946.57202148 165.35940552 C-946.56921051 164.54933633 -946.56639953 163.73926715 -946.56350337 162.90465041 C-946.3796743 109.93641944 -946.19033731 56.96820794 -946 4 C-830.25090794 2.8725963 -830.25090794 2.8725963 -785.83221292 2.76235056 C-780.03509517 2.74693707 -774.2379926 2.72688042 -768.44088745 2.70736694 C-758.37406842 2.6738341 -748.30724574 2.64192968 -738.24041748 2.61129761 C-710.69430041 2.52704511 -683.14822517 2.43076219 -655.6021685 2.32875779 C-653.31650914 2.32029842 -651.03084964 2.31187463 -648.74519014 2.3034513 C-595.94536297 2.10837553 -543.14623957 1.82726735 -490.34701896 1.50936565 C-486.53853888 1.48644919 -482.73005838 1.46360481 -478.92157787 1.44076115 C-462.622165 1.34299104 -446.32275481 1.24477653 -430.02334595 1.14634037 C-418.47389811 1.07659213 -406.92444957 1.00696104 -395.375 0.9375 C-393.94895655 0.92892177 -393.94895655 0.92892177 -392.49410415 0.92017025 C-308.41876954 0.41462647 -224.34412339 -0.08944788 0 0 Z " fill="#00BC7D" transform="translate(1259,5)"/>
<path d="M0 0 C0 311.19 0 622.38 0 943 C165.01332202 942.34587687 165.01332202 942.34587687 330.02661133 941.68359375 C368.85089525 941.53074881 368.85089525 941.53074881 385.52277732 941.46757126 C387.46761868 941.46020014 387.46761868 941.46020014 389.45174977 941.45268011 C390.10826963 941.450193 390.76478949 941.44770588 391.44120389 941.4451434 C393.49313254 941.43736311 395.54506111 941.42956165 397.59698966 941.42175531 C487.4264682 941.08017174 577.25483328 940.89302918 714 941 C712.41767089 945.25769409 710.58783674 947.82183002 707.4375 951.125 C703.96080219 954.84646533 700.63504439 958.59371692 697.4375 962.5625 C694.55151207 966.13828469 691.59555196 969.60401318 688.5 973 C685.47717579 976.31989486 682.57487839 979.69764112 679.75 983.1875 C676.14529915 987.63852192 672.44629733 991.99198605 668.6875 996.3125 C668.13642578 996.94599365 667.58535156 997.5794873 667.01757812 998.23217773 C665.89837515 999.51831655 664.77907163 1000.80436788 663.65966797 1002.09033203 C657.45127377 1009.23391241 651.27176028 1016.39645872 645.3125 1023.75 C641.76254679 1028.12507747 638.04436179 1032.30549192 634.25 1036.46875 C631.92137947 1039.0884481 629.70437053 1041.7751531 627.5 1044.5 C623.88967558 1048.96276213 620.11572071 1053.22719533 616.25 1057.46875 C613.92137947 1060.0884481 611.70437053 1062.7751531 609.5 1065.5 C606.5918662 1069.0947765 603.61458668 1072.58260628 600.5 1076 C597.47717579 1079.31989486 594.57487839 1082.69764112 591.75 1086.1875 C588.14529915 1090.63852192 584.44629733 1094.99198605 580.6875 1099.3125 C580.13642578 1099.94599365 579.58535156 1100.5794873 579.01757812 1101.23217773 C577.89837515 1102.51831655 576.77907163 1103.80436788 575.65966797 1105.09033203 C568.7296213 1113.06426923 561.85815525 1121.07630226 555.23046875 1129.3046875 C554.49441406 1130.19414063 553.75835938 1131.08359375 553 1132 C552.56490364 1132.65345587 552.12980728 1133.30691174 551.68152618 1133.9801693 C549.2848229 1137.2615043 547.39459866 1139.60740243 543.39581299 1140.73311234 C540.15641411 1141.00127978 537.0019199 1141.01205362 533.75195312 1140.93994141 C532.5053828 1140.94427405 531.25881247 1140.9486067 529.97446728 1140.95307064 C526.48754175 1140.96391276 523.00270178 1140.92427867 519.51614928 1140.87679982 C515.67334256 1140.83340541 511.83051473 1140.836848 507.98750305 1140.83396912 C501.15757251 1140.82222669 494.32834141 1140.77977579 487.49868774 1140.7180481 C477.23079513 1140.62530677 466.96304649 1140.57883198 456.69482625 1140.54036248 C436.20946945 1140.46140603 415.72473886 1140.32102795 395.2398386 1140.16578007 C377.63865864 1140.03253045 360.03742298 1139.91193568 342.43610792 1139.7983229 C336.01826093 1139.75685552 329.60041619 1139.71504127 323.18257141 1139.67323303 C322.46598925 1139.66856617 321.74940709 1139.66389931 321.01111031 1139.65909103 C279.77246292 1139.39033458 238.53395504 1139.10352525 197.2956543 1138.78588867 C196.54664864 1138.78012025 195.79764299 1138.77435183 195.02594019 1138.76840861 C183.05734337 1138.67619286 171.08875126 1138.58336932 159.12015894 1138.49057212 C119.79904283 1138.18576887 80.47796172 1137.89827338 41.15625 1137.6796875 C39.65569238 1137.67133365 39.65569238 1137.67133365 38.12482047 1137.66281104 C19.98624128 1137.56211056 1.84763353 1137.46718297 -16.29100066 1137.37695712 C-24.854162 1137.33435027 -33.41731732 1137.290644 -41.98046875 1137.24609375 C-42.7353803 1137.24219328 -43.49029186 1137.23829281 -44.26807952 1137.23427415 C-101.51269797 1136.93749696 -158.75640783 1136.44819979 -216 1136 C-216.034118 1050.38991098 -216.05599901 964.77981997 -215.58623637 425.93143057 C-215.56507028 418.58094016 -215.54491969 411.23044724 -215.52503789 403.87995325 C-215.49858917 394.10640891 -215.47134429 384.33286693 -215.44360352 374.55932617 C-215.4411918 373.70478004 -215.43878008 372.85023391 -215.43629529 371.96979244 C-215.38381147 353.42906608 -215.32270428 334.88846559 -215.22523499 316.34791565 C-215.21749081 314.86241068 -215.20974671 313.37690572 -215.2020027 311.89140075 C-215.171957 306.15432297 -215.14180931 300.41724607 -215.1100353 294.68017757 C-215.02076118 278.42821347 -214.99779296 262.1786574 -215.0940218 245.92660713 C-215.13566987 238.76281348 -215.14367024 231.59914805 -215.13897437 224.43524539 C-215.13813696 219.12166452 -215.18116865 213.81132218 -215.26433706 208.49842453 C-215.30190735 205.39303191 -215.29474519 202.28902076 -215.27368093 199.18352365 C-215.27321585 197.15427466 -215.3274072 195.12523238 -215.38435936 193.09678268 C-215.30592262 187.67881459 -215.07824155 184.33287182 -211.60199165 180.03569412 C-208.8387031 177.49804554 -206.01303986 175.23129944 -203 173 C-201.69621359 171.86797623 -200.40134456 170.72537633 -199.125 169.5625 C-195.20876089 166.15465705 -191.23611721 162.81364952 -187.26782227 159.46679688 C-182.36154173 155.32194423 -177.50620602 151.12017714 -172.65795898 146.90771484 C-168.45272445 143.25516211 -164.23278183 139.62058288 -160 136 C-152.6376324 129.70007102 -145.31727499 123.3521939 -138 117 C-130.10931412 110.15002282 -122.20914701 103.31224102 -114.26928711 96.51928711 C-109.36673316 92.32191862 -104.48931529 88.09603531 -99.61645508 83.86425781 C-95.32394247 80.13920722 -91.0101322 76.44002309 -86.6875 72.75 C-82.67652499 69.32559051 -78.71344895 65.86273272 -74.8125 62.3125 C-70.57291957 58.46148995 -66.17067888 54.85156045 -61.71875 51.25 C-58.22091849 48.35524289 -54.88214596 45.30410461 -51.52734375 42.24609375 C-48.93037607 39.93812402 -46.26595987 37.74444137 -43.5625 35.5625 C-38.788597 31.70174863 -34.26611572 27.62562925 -29.75 23.46875 C-26.1984049 20.28038622 -22.49630142 17.3030533 -18.78125 14.30859375 C-14.83045874 11.02921505 -11.07391297 7.55992789 -7.3125 4.06640625 C-2.76181474 0 -2.76181474 0 0 0 Z " fill="#00BC7D" transform="translate(216,0)"/>
</svg>
